HIERARCHY
ROOT Hips
{
	OFFSET 0.00000 0.00000 0.00000
	CHANNELS 6 Xposition Yposition Zposition Zrotation Yrotation Xrotation 
	JOINT LHipJoint
	{
		OFFSET 0 0 0
		CHANNELS 3 Zrotation Yrotation Xrotation
		JOINT LeftHip
		{
			OFFSET 1.84395 -1.68683 0.74144
			CHANNELS 3 Zrotation Yrotation Xrotation
			JOINT LeftKnee
			{
				OFFSET 2.27037 -6.23779 0.00000
				CHANNELS 3 Zrotation Yrotation Xrotation
				JOINT LeftAnkle
				{
					OFFSET 2.56918 -7.05877 0.00000
					CHANNELS 3 Zrotation Yrotation Xrotation
					JOINT LeftToe
					{
						OFFSET 0.22276 -0.61202 1.71784
						CHANNELS 3 Zrotation Yrotation Xrotation
						End Site
						{
							OFFSET 0.00000 -0.00000 0.91613
						}
					}
				}
			}
		}
	}
	JOINT RHipJoint
	{
		OFFSET 0 0 0
		CHANNELS 3 Zrotation Yrotation Xrotation
		JOINT RightHip
		{
			OFFSET -1.76833 -1.68684 0.74144
			CHANNELS 3 Zrotation Yrotation Xrotation
			JOINT RightKnee
			{
				OFFSET -2.49360 -6.85110 0.00000
				CHANNELS 3 Zrotation Yrotation Xrotation
				JOINT RightAnkle
				{
					OFFSET -2.55538 -7.02085 0.00000
					CHANNELS 3 Zrotation Yrotation Xrotation
					JOINT RightToe
					{
						OFFSET -0.21516 -0.59115 1.68050
						CHANNELS 3 Zrotation Yrotation Xrotation
						End Site
						{
							OFFSET -0.00000 -0.00000 0.89604
						}
					}
				}
			}
		}
	}
	JOINT lowerback
	{
		OFFSET 0 0 0
		CHANNELS 3 Zrotation Yrotation Xrotation
		JOINT Chest
		{
			OFFSET 0.06382 1.72312 -0.19613
			CHANNELS 3 Zrotation Yrotation Xrotation
			JOINT Chest2
			{
				OFFSET -0.00055 1.73507 0.23859
				CHANNELS 3 Zrotation Yrotation Xrotation
				JOINT lowerneck
				{
					OFFSET 0 0 0
					CHANNELS 3 Zrotation Yrotation Xrotation
					JOINT Neck
					{
						OFFSET 0.03638 1.65562 0.09633
						CHANNELS 3 Zrotation Yrotation Xrotation
						JOINT Head
						{
							OFFSET 0.06388 1.62807 -0.32386
							CHANNELS 3 Zrotation Yrotation Xrotation
							End Site
							{
								OFFSET 0.00995 1.67644 -0.12021
							}
						}
					}
				}
				JOINT LeftCollar
				{
					OFFSET 0 0 0
					CHANNELS 3 Zrotation Yrotation Xrotation
					JOINT LeftShoulder
					{
						OFFSET 3.09648 1.42991 0.28122
CHANNELS 3 Zrotation Xrotation Yrotation
						JOINT LeftElbow
						{
OFFSET 0 -5.118780 -0.000000
CHANNELS 3 Zrotation Xrotation Yrotation
							JOINT LeftWrist
							{
OFFSET 0 -3.599710 0.000000
CHANNELS 3 Zrotation Xrotation Yrotation
								JOINT lhand
								{
									OFFSET 0 0 0
CHANNELS 3 Zrotation Xrotation Yrotation
									JOINT LFingers
									{
OFFSET 0 -0.628770 0.000000
CHANNELS 3 Zrotation Xrotation Yrotation
										End Site
										{
OFFSET 0 -0.506930 0.000000
										}
									}
								}
								JOINT LThumb
								{
OFFSET 0 0.000000 0.000000
CHANNELS 3 Zrotation Xrotation Yrotation
									End Site
									{
OFFSET 0 -0.514670 0.514670
									}
								}
							}
						}
					}
				}
				JOINT RightCollar
				{
					OFFSET 0 0 0
					CHANNELS 3 Zrotation Yrotation Xrotation
					JOINT RightShoulder
					{
						OFFSET -3.33565 1.14597 0.05047
CHANNELS 3 Zrotation Xrotation Yrotation
						JOINT RightElbow
						{
OFFSET 0 -5.490200 0.000000
CHANNELS 3 Zrotation Xrotation Yrotation
							JOINT RightWrist
							{
OFFSET 0 -3.206590 -0.000000
CHANNELS 3 Zrotation Xrotation Yrotation
								JOINT rhand
								{
									OFFSET 0 0 0
CHANNELS 3 Zrotation Xrotation Yrotation
									JOINT RFingers
									{
OFFSET 0 -0.691880 0.000000
CHANNELS 3 Zrotation Xrotation Yrotation
										End Site
										{
OFFSET 0 -0.557810 0.000000
										}
									}
								}
								JOINT RThumb
								{
OFFSET 0 0.000000 0.000000
CHANNELS 3 Zrotation Xrotation Yrotation
									End Site
									{
OFFSET 0 -0.566330 0.566330
									}
								}
							}
						}
					}
				}
			}
		}
	}
}
MOTION
Frames: 10
Frame Time: 0.008333333333333333
0.571900 17.486200 9.299400 -8.874400 -0.542600 10.091900 0.000000 0.000000 0.000000 -18.604100 -42.208600 23.885200 0.055800 -1.524900 -4.194300 -5.576200 42.909400 -41.738900 0.227400 3.069400 8.472000 0.000000 0.000000 0.000000 27.979500 27.156800 5.627700 -0.007300 -0.550400 1.512500 1.185800 -21.645800 -19.662600 -0.124300 2.272800 -6.260300 5.426000 0.526400 0.197300 1.582300 1.186600 -10.179900 -1.438200 0.175000 -10.923900 -8.950600 -10.922600 -3.136700 9.327700 -15.803400 16.087800 3.164900 -7.608700 6.876700 -0.000000 0.000000 0.000000 1.281500 7.058800 26.698000 11.252800 -18.674800 1.856100 16.491200 12.324800 8.548500 0.000000 0.000000 0.000000 -7.125000 0.000000 0.000000 -7.493600 21.102300 -4.329600 -0.000000 0.000000 0.000000 2.370500 4.930600 -37.084300 -11.218900 -18.623100 -1.845200 -6.611100 66.334400 31.057400 0.000000 0.000000 0.000000 7.125000 0.000000 -0.000000 28.164100 58.916200 -10.079800
0.584859 17.482114 9.293664 -8.911137 -0.369871 9.986712 0.000000 0.000000 0.000000 -18.642948 -42.040824 23.846966 0.053443 -1.492328 -4.104577 -5.592456 42.779054 -41.313543 0.202098 2.894635 7.985534 0.000000 0.000000 0.000000 27.902005 26.393768 5.477593 -0.005977 -0.499358 1.372100 1.125045 -21.183750 -19.339979 -0.152593 2.517015 -6.936935 7.141018 1.039443 -0.198145 0.457263 1.833005 -9.790037 -3.648256 0.310013 -10.146047 -8.298840 -11.281144 -3.619770 9.903073 -16.435819 16.100950 3.149457 -7.817770 7.021694 0.000000 0.000000 0.000000 1.326335 5.865835 31.533232 11.965356 -19.752185 2.090970 15.545093 18.794851 8.923968 0.000000 0.000000 0.000000 -7.125000 0.000000 0.000000 -8.165039 20.764080 -4.788134 0.000000 0.000000 0.000000 3.310969 3.664378 -39.242694 -12.907860 -21.152059 -2.419987 7.180609 43.229272 30.555679 0.000000 0.000000 0.000000 7.125000 0.000000 0.000000 40.827613 55.593826 -12.062043
0.585618 17.481559 9.288778 -9.098040 -0.338218 10.011050 0.000000 0.000000 0.000000 -18.263353 -41.932291 23.646631 0.054150 -1.501313 -4.129247 -5.565639 42.679605 -41.168918 0.201313 2.889082 7.970092 0.000000 0.000000 0.000000 28.077888 26.331006 5.379284 -0.006305 -0.511748 1.406218 1.101950 -21.054929 -19.340255 -0.052811 1.320649 -3.633709 7.448349 1.091790 -0.321158 0.442262 1.906057 -9.753883 -3.837677 0.324318 -10.020947 -7.861214 -11.124182 -4.124198 9.550984 -16.213740 16.584059 2.962735 -7.680126 7.176950 0.000000 0.000000 0.000000 1.279091 6.032332 31.610498 12.105815 -19.963132 2.138281 15.496216 18.936245 8.758574 0.000000 0.000000 0.000000 -7.125000 0.000000 0.000000 -8.204562 20.935952 -4.779379 0.000000 0.000000 0.000000 3.401941 3.471104 -40.280364 -12.860048 -21.081628 -2.402833 7.998867 43.248144 31.118618 0.000000 0.000000 0.000000 7.125000 0.000000 0.000000 42.073709 55.864674 -12.825818
0.582019 17.483481 9.303204 -9.702587 -0.114224 10.180954 0.000000 0.000000 0.000000 -17.352174 -41.971052 23.474315 0.059200 -1.569791 -4.318227 -5.659176 42.759251 -40.946796 0.186626 2.782290 7.673365 0.000000 0.000000 0.000000 28.749547 26.107181 5.252088 -0.005055 -0.460968 1.266603 1.088981 -20.936539 -19.227676 -0.006076 -0.495785 1.362222 8.051399 1.115487 -0.907796 0.593215 1.921010 -9.719215 -3.996057 0.306328 -9.632317 -7.411099 -10.915418 -4.907448 9.175588 -15.947827 17.452243 2.748804 -7.502531 7.502338 0.000000 0.000000 0.000000 1.341158 6.218940 30.734107 12.212672 -20.122847 2.174872 15.659972 18.187330 7.291033 0.000000 0.000000 0.000000 -7.125000 0.000000 0.000000 -8.130297 22.434237 -4.456165 0.000000 0.000000 0.000000 3.150959 2.999775 -42.342288 -12.428446 -20.444049 -2.249706 8.863474 44.171208 31.047365 0.000000 0.000000 0.000000 7.125000 0.000000 0.000000 42.784943 55.633902 -12.854473
0.568683 17.495508 9.309763 -8.936214 -0.433750 10.464462 0.000000 0.000000 0.000000 -18.365305 -42.553368 23.604522 0.056501 -1.534016 -4.219464 -5.531171 42.966265 -42.088748 0.241574 3.160284 8.725574 0.000000 0.000000 0.000000 27.761832 26.633111 5.056457 -0.005273 -0.468577 1.287443 1.111397 -21.120736 -19.372539 -0.015254 -0.796274 2.188397 7.190743 1.298991 -1.113476 0.209509 2.094083 -9.988840 -3.937478 0.431577 -9.785088 -6.824653 -10.705356 -5.259529 8.905006 -15.744418 18.314174 2.567266 -7.354858 7.758162 0.000000 0.000000 0.000000 1.641026 6.337347 31.848887 12.160538 -20.045007 2.157040 15.873495 19.763597 7.056178 0.000000 0.000000 0.000000 -7.125000 0.000000 0.000000 -7.982660 22.667042 -4.330659 0.000000 0.000000 0.000000 3.345864 3.230643 -42.854270 -12.392536 -20.390681 -2.237172 9.755687 42.600879 32.642187 0.000000 0.000000 0.000000 7.125000 0.000000 0.000000 45.105753 56.647676 -14.962643
0.562561 17.500595 9.305192 -8.509421 -0.605382 10.583410 0.000000 0.000000 0.000000 -18.731919 -42.656290 23.409606 0.054557 -1.506981 -4.144973 -5.402203 42.886904 -42.452933 0.273391 3.363270 9.291839 0.000000 0.000000 0.000000 27.208525 26.963846 4.914432 -0.006357 -0.513579 1.411219 1.112133 -21.191923 -19.539387 -0.015957 -0.815844 2.242244 6.828640 1.431770 -0.943523 -0.051838 2.263556 -10.254064 -4.038391 0.510450 -10.162907 -6.522499 -10.441299 -5.504828 8.817083 -15.459404 19.017913 2.504019 -7.178456 7.978169 0.000000 0.000000 0.000000 1.895323 6.585531 32.561973 12.053739 -19.885137 2.120521 15.856680 20.930903 7.217165 0.000000 0.000000 0.000000 -7.125000 0.000000 0.000000 -7.989371 22.502232 -4.364827 0.000000 0.000000 0.000000 3.477887 3.552058 -44.041917 -12.288616 -20.236069 -2.201108 9.532977 43.664353 32.601074 0.000000 0.000000 0.000000 7.125000 0.000000 0.000000 44.865165 56.664859 -14.875904
0.564418 17.499564 9.296597 -8.508013 -0.678341 10.564801 0.000000 0.000000 0.000000 -18.549070 -42.395787 23.141341 0.054332 -1.504733 -4.138694 -5.453861 42.818168 -42.047503 0.256915 3.261041 9.006369 0.000000 0.000000 0.000000 27.149326 26.857919 4.785929 -0.007004 -0.540310 1.484678 1.084462 -21.005385 -19.461287 -0.015259 -0.796745 2.189715 6.837254 1.482876 -1.155439 -0.028633 2.307081 -10.047020 -4.009238 0.552389 -9.794300 -6.334480 -10.106074 -6.169101 8.884873 -15.043811 19.453595 2.504088 -6.924543 8.197664 0.000000 0.000000 0.000000 1.875318 6.173207 33.056830 11.954213 -19.735858 2.086807 15.792103 21.562270 7.144459 0.000000 0.000000 0.000000 -7.125000 0.000000 0.000000 -8.039031 22.579482 -4.378088 0.000000 0.000000 0.000000 3.330892 3.194108 -43.817847 -12.350543 -20.328265 -2.222584 9.822235 43.049278 33.261970 0.000000 0.000000 0.000000 7.125000 0.000000 0.000000 45.788359 57.090096 -15.780369
0.567270 17.499007 9.288215 -8.488790 -0.787143 10.519526 0.000000 0.000000 0.000000 -18.546436 -42.256363 23.078291 0.054193 -1.502311 -4.132060 -5.344545 42.667905 -42.142963 0.278051 3.391712 9.371310 0.000000 0.000000 0.000000 27.058060 26.681023 4.616595 -0.008445 -0.594101 1.632417 1.034859 -20.694739 -19.389332 -0.012330 -0.717041 1.970600 6.872290 1.535806 -1.104921 -0.024209 2.382436 -9.999962 -4.029660 0.589008 -9.761253 -6.020999 -9.843016 -6.412147 8.716072 -14.686872 19.641776 2.429806 -6.733308 8.236070 0.000000 0.000000 0.000000 1.812309 6.086961 33.419120 11.923392 -19.689587 2.076368 15.711032 21.823436 7.269362 0.000000 0.000000 0.000000 -7.125000 0.000000 0.000000 -8.093878 22.454434 -4.431917 0.000000 0.000000 0.000000 3.238812 3.233624 -43.232134 -12.492741 -20.539453 -2.272225 9.932069 42.222286 33.206356 0.000000 0.000000 0.000000 7.125000 0.000000 0.000000 45.829359 57.025799 -15.723663
0.572163 17.499982 9.281383 -8.432358 -0.806797 10.455190 0.000000 0.000000 0.000000 -18.493446 -41.992090 22.865045 0.053482 -1.492039 -4.103825 -5.400554 42.587339 -41.681880 0.252659 3.233904 8.930795 0.000000 0.000000 0.000000 26.963232 26.533430 4.591367 -0.008827 -0.605370 1.663566 1.007560 -20.530497 -19.371280 -0.013745 -0.756176 2.078167 6.909675 1.550530 -1.100877 -0.028341 2.401375 -9.942918 -4.055209 0.598851 -9.695696 -6.150728 -9.538781 -6.470222 9.198247 -14.357622 19.766712 2.641746 -6.537975 8.308605 0.000000 0.000000 0.000000 1.762072 6.061634 33.339239 11.906943 -19.664965 2.070839 15.761746 21.689881 7.272397 0.000000 0.000000 0.000000 -7.125000 0.000000 0.000000 -8.056813 22.449286 -4.412188 0.000000 0.000000 0.000000 3.157295 3.318105 -42.407161 -12.668848 -20.800032 -2.334397 9.972269 41.204985 33.237760 0.000000 0.000000 0.000000 7.125000 0.000000 0.000000 45.897122 57.040089 -15.771088
0.573736 17.499462 9.275844 -8.392579 -0.844607 10.450094 0.000000 0.000000 0.000000 -18.315860 -41.719920 22.541611 0.052896 -1.484335 -4.082522 -5.361143 42.385414 -41.331403 0.248041 3.204612 8.848992 0.000000 0.000000 0.000000 26.863533 26.412623 4.461010 -0.009502 -0.629914 1.731121 0.994951 -20.407030 -19.249469 -0.009772 -0.635230 1.745733 6.918410 1.587116 -1.169181 -0.050573 2.442190 -9.914644 -4.083336 0.620970 -9.616701 -5.928428 -9.320715 -6.635479 9.128856 -14.088674 20.040896 2.606661 -6.386339 8.385715 0.000000 0.000000 0.000000 1.764783 6.026099 33.153256 11.890045 -19.639517 2.065170 15.818144 21.620490 7.309108 0.000000 0.000000 0.000000 -7.125000 0.000000 0.000000 -8.014381 22.409219 -4.395937 0.000000 0.000000 0.000000 3.094548 3.439548 -41.554752 -12.836887 -21.047748 -2.394400 9.973028 40.204828 33.148464 0.000000 0.000000 0.000000 7.125000 0.000000 0.000000 45.806725 56.974555 -15.653304
